<?xml version="1.0" encoding="UTF-8" standalone="no"?>
<svg
   version="1.1"
   width="1184.4865"
   height="348.79419"
   viewBox="0 0 1184.4865 348.79419"
   xml:space="preserve"
   id="svg4"
   sodipodi:docname="c-ares-logo.svg"
   inkscape:version="1.3.2 (091e20e, 2023-11-25)"
   xmlns:inkscape="http://www.inkscape.org/namespaces/inkscape"
   xmlns:sodipodi="http://sodipodi.sourceforge.net/DTD/sodipodi-0.dtd"
   xmlns="http://www.w3.org/2000/svg"
   xmlns:svg="http://www.w3.org/2000/svg"><sodipodi:namedview
   id="namedview1"
   pagecolor="#ffffff"
   bordercolor="#000000"
   borderopacity="0.25"
   inkscape:showpageshadow="2"
   inkscape:pageopacity="0.0"
   inkscape:pagecheckerboard="0"
   inkscape:deskcolor="#d1d1d1"
   inkscape:zoom="0.60870262"
   inkscape:cx="591.42181"
   inkscape:cy="174.14087"
   inkscape:window-width="1464"
   inkscape:window-height="725"
   inkscape:window-x="75"
   inkscape:window-y="38"
   inkscape:window-maximized="0"
   inkscape:current-layer="svg4" />
<desc
   id="desc1">Created with Fabric.js 5.3.0</desc>
<defs
   id="defs1" />

<g
   transform="matrix(1.9211538,0,0,1.9211538,201.28417,174.3971)"
   id="logo-logo">
<g
   paint-order="stroke"
   id="g3">
		<g
   transform="matrix(0.40699663,0,0,0.40699663,-4.6295563,5.491128)"
   id="g1">
<path
   style="opacity:1;fill:#0f5289;fill-rule:nonzero;stroke:none;stroke-width:1;stroke-linecap:butt;stroke-linejoin:miter;stroke-miterlimit:4;stroke-dasharray:none;stroke-dashoffset:0"
   paint-order="stroke"
   transform="translate(-932.39655,-540.05)"
   d="m 1061.4,652.1 c -3.9,-5 -11.1,-5.9 -16.1,-2 -24.6,19.1 -54.1,29.2 -85.3,29.2 -76.8,0 -139.2,-62.4 -139.2,-139.2 0,-44 20.2,-84.5 55.3,-111.1 0.4,-0.3 0.7,-0.5 1,-0.9 -6.3,-4.2 -13.1,-8.7 -20.1,-13.4 -17.2,14.2 -31.6,32 -41.7,51.9 -11.7,22.9 -17.5,47.6 -17.5,73.5 0,89.5 72.8,162.2 162.2,162.2 36.4,0 70.7,-11.8 99.4,-34 5,-4 5.9,-11.2 2,-16.2 z M 991.1,380.8 c -20.8,-4 -42.6,-4 -63.3,0.2 -2.9,0.6 -5.4,2.3 -7,4.5 l 22.3,16.3 c 14.5,-1.7 29.4,-1.2 43.7,1.5 6.2,1.2 12.3,-2.9 13.5,-9.1 1.2,-6.2 -2.9,-12.2 -9.2,-13.4 z M 1114.6,664 c -4.7,-4.1 -11.9,-3.7 -16.1,0.9 -34.8,38.5 -84.8,61.6 -138.5,61.6 -45.7,0 -87.6,-16.5 -120.1,-43.9 2,-4.3 3.1,-9.1 3.1,-14.1 0,-18.6 -15.1,-33.7 -33.7,-33.7 -3.2,0 -6.2,0.4 -9.1,1.2 -16.9,-28.1 -26.7,-60.9 -26.7,-96 0,-49.9 20.1,-97.8 55.5,-132.7 2,-2 4,-3.9 6.1,-5.7 0.3,-0.3 0.6,-0.6 0.8,-0.8 -7.2,-4.7 -14,-9.2 -19.8,-13 -2.7,2.5 -5.3,5.2 -7.9,7.9 -28.9,30.4 -47.9,68.7 -54.8,109.8 v 0 c -4.2,3 -12,17.9 -2.9,36.8 0,0 0,0 0,0 0.4,39.3 11.6,76 30.9,107.3 -3.7,5.4 -5.9,12 -5.9,19 0,18.6 15.1,33.7 33.7,33.7 5.2,0 10,-1.2 14.4,-3.2 36.7,31.5 84.3,50.5 136.3,50.5 60.3,0 116.5,-25.9 155.6,-69.2 4.4,-4.8 3.9,-12.2 -0.9,-16.4 z m -305.3,15.2 c -5.9,0 -10.7,-4.8 -10.7,-10.7 0,-5.9 4.8,-10.7 10.7,-10.7 5.9,0 10.7,4.8 10.7,10.7 0,5.9 -4.8,10.7 -10.7,10.7 z m 259.9,-337.7 c -8.3,0 -15.9,3 -21.8,8 -27.2,-12.5 -56.9,-19 -87.4,-19 -26.9,0 -53,5 -77.8,14.9 -1.9,0.8 -3.8,1.5 -5.6,2.3 -1.5,0.6 -2.7,1.5 -3.8,2.6 l 20.8,15.2 c 4.3,-1.6 8.7,-3.1 13.1,-4.4 17.2,-5.1 35,-7.7 53.3,-7.7 26.4,0 52.2,5.5 75.9,16.1 -0.3,1.8 -0.5,3.7 -0.5,5.6 0,18.6 15.1,33.7 33.7,33.7 18.6,0 33.7,-15.1 33.7,-33.7 0.1,-18.5 -15,-33.6 -33.6,-33.6 z m 0,44.5 c -5.9,0 -10.7,-4.8 -10.7,-10.7 0,-5.9 4.8,-10.7 10.7,-10.7 5.9,0 10.7,4.8 10.7,10.7 0,5.9 -4.8,10.7 -10.7,10.7 z"
   stroke-linecap="round"
   id="path1" />
</g>
		<g
   transform="matrix(0.40699663,0,0,0.40699663,0,-9.6458201)"
   id="g2">
<path
   style="opacity:1;fill:#1e7bd3;fill-rule:nonzero;stroke:none;stroke-width:1;stroke-linecap:butt;stroke-linejoin:miter;stroke-miterlimit:4;stroke-dasharray:none;stroke-dashoffset:0"
   paint-order="stroke"
   transform="translate(-943.77147,-502.85817)"
   d="m 1191.1,644.6 c -6.4,-6.4 -14.8,-9.9 -23.9,-9.9 -1.3,0 -2.7,0.1 -4,0.2 -2.9,-5.3 -5.9,-10.6 -9.2,-16 0,0 0,0 0,0 -4.8,-8.1 -10,-16.3 -15.6,-24.7 -27.9,-41.6 -64.8,-86 -107.2,-128.5 -23.5,-23.5 -47.7,-45.4 -71.6,-64.9 -8.9,-7.2 -17.8,-14.2 -26.6,-20.8 -8.8,-6.6 -17.6,-12.9 -26.3,-18.8 -8.3,-5.6 -16.4,-10.9 -24.5,-15.8 -8.5,-5.2 -16.9,-10 -25.1,-14.3 -58.8,-31.1 -101.4,-36 -123.2,-14.2 -8.2,8.2 -12.7,19.5 -13.3,33.7 -8.4,2 -15.4,5.8 -21.1,11.5 -15.4,15.4 -17.3,41.1 -5.6,76.2 9.9,29.7 29.4,65.6 56.6,103.8 0,-0.7 0,-1.4 0,-2.1 0,-11.7 1,-23.2 2.9,-34.6 v 0 c -17.6,-27.4 -30.5,-52.8 -37.7,-74.3 -8.5,-25.5 -8.4,-44.2 0.1,-52.7 12.7,-12.7 48,-6 92.4,17.3 0.3,0.2 0.7,0.4 1,0.5 6.5,3.4 13,7.1 19.7,11.1 7,4.2 14,8.6 21.2,13.4 6.4,4.3 12.9,8.8 19.5,13.5 34.2,24.6 69.7,55 104,89.3 7.4,7.4 14.6,14.8 21.7,22.4 v 0 c -7.2,12.8 -5.3,29.4 5.6,40.3 6.4,6.4 14.8,9.9 23.8,9.9 4.5,0 8.9,-0.9 12.9,-2.5 4,-1.7 7.8,-4.1 10.9,-7.3 6.4,-6.4 9.9,-14.8 9.9,-23.9 0,-9.1 -3.5,-17.5 -9.9,-23.9 -9.7,-9.7 -23.9,-12.2 -35.9,-7.7 v 0 C 1005.2,522.9 997.5,515 989.8,507.2 933.1,450.4 872.8,403.7 820,375.8 790.1,360 764.4,351.1 743.7,349.3 c 0.6,-7 2.8,-12.4 6.4,-16.1 13.4,-13.4 49.4,-6.6 96.2,18.2 9.2,4.9 18.6,10.3 28.3,16.3 0,0 0,0 0.1,0 0.3,0.2 0.5,0.3 0.8,0.5 0,0 0.1,0 0.1,0.1 0,0 0,0 0,0 15.2,9.5 30.9,20.4 46.8,32.5 0,0 0,0 0,0 0.5,0.3 0.9,0.7 1.4,1 30.2,23.1 61.2,50.2 91.2,80.2 46.2,46.2 85.5,94.5 113.2,138.6 5,7.9 9.6,15.7 13.8,23.3 0.3,0.5 0.5,0.9 0.8,1.4 -6,6.3 -9.2,14.5 -9.2,23.1 0,9 3.5,17.5 9.9,23.9 6.4,6.4 14.8,9.9 23.9,9.9 9.1,0 17.5,-3.5 23.9,-9.9 6.4,-6.4 9.9,-14.9 9.9,-23.9 0,-9 -3.7,-17.4 -10.1,-23.8 z m -174,-90 c 2.1,-2.1 4.9,-3.1 7.6,-3.1 2.7,0 5.5,1 7.6,3.1 2,2 3.1,4.7 3.1,7.6 0,1.4 -0.3,2.8 -0.8,4.1 -0.5,1.3 -1.3,2.5 -2.3,3.5 -2,2 -4.7,3.1 -7.6,3.1 -2.9,0 -5.6,-1.1 -7.6,-3.1 -4.2,-4.2 -4.2,-11 0,-15.2 z m 157.7,121.5 c -2,2 -4.7,3.1 -7.6,3.1 -2.9,0 -5.6,-1.1 -7.6,-3.1 -2,-2 -3.1,-4.7 -3.1,-7.6 0,-2.9 1.1,-5.6 3.1,-7.6 2,-2 4.7,-3.1 7.6,-3.1 2.9,0 5.6,1.1 7.6,3.1 2,2 3.2,4.7 3.2,7.6 0,2.9 -1.1,5.5 -3.2,7.6 z"
   stroke-linecap="round"
   id="path2" />
</g>
</g>
</g>
<g
   transform="matrix(1.9211538,0,0,1.9211538,806.33613,164.49002)"
   id="text-logo">
<g
   paint-order="stroke"
   id="g4">
		<g
   id="text-logo-path-0">
<path
   style="opacity:1;fill:#0f5289;fill-rule:nonzero;stroke:#ffffff;stroke-width:0;stroke-linecap:butt;stroke-linejoin:miter;stroke-miterlimit:4;stroke-dasharray:none;stroke-dashoffset:0"
   paint-order="stroke"
   transform="translate(-200.975,34.685)"
   d="m 72.57,-18.24 h -7.9 c -5.26,7.71 -14.66,12.79 -24.06,12.79 -16.36,0 -29.52,-14.1 -29.52,-29.52 0,-15.6 13.73,-28.95 29.14,-28.95 9.21,0 18.99,4.32 24.25,12.22 h 7.71 c -4.7,-10.53 -18.05,-18.99 -32.15,-18.99 -19.74,0 -35.9,16.17 -35.9,35.72 0,19.93 15.79,36.29 36.47,36.29 13.91,0 25.75,-8.46 31.96,-19.56 z m 46.25,-6.95 V -31.4 H 93.44 v 6.21 z M 203.79,0 173.9,-69.56 h -7.71 L 136.3,0 h 7.52 l 9.96,-23.31 h 32.34 L 196.27,0 Z m -20.3,-29.7 H 156.6 l 13.54,-31.78 z M 272.22,-47 c 0,-6.58 -2.63,-11.84 -6.2,-15.6 -5.08,-5.08 -12.03,-6.96 -20.87,-6.96 H 225.04 V 0 h 6.95 v -63.17 h 14.1 c 5.64,0 11.09,1.32 14.67,4.89 2.63,2.63 4.51,6.39 4.51,11.28 0,4.7 -2.63,9.02 -5.64,11.47 -3.76,3.19 -10.34,3.95 -13.54,3.95 h -7.14 L 262.64,0 h 8.64 l -19.55,-25.94 c 11.85,-0.38 20.49,-10.16 20.49,-21.06 z m 61.67,47 v -6.39 h -31.02 v -25.57 h 30.08 v -6.2 h -30.08 v -25.01 h 31.02 v -6.39 H 295.91 V 0 Z m 63.92,-19.18 c 0,-7.52 -4.14,-14.66 -12.41,-18.23 l -13.16,-3.95 c -4.32,-1.32 -7.9,-4.89 -7.9,-10.53 0,-6.95 5.64,-12.03 12.04,-12.03 6.95,0 11.84,4.89 12.59,12.03 h 7.15 c 0,-10.9 -8.65,-18.8 -19.18,-18.8 -10.9,0 -19.55,7.9 -19.55,18.61 0,6.96 3.76,13.54 11.47,16.36 5.26,1.88 12.03,3.57 12.03,3.57 6.01,2.07 9.96,7.15 9.96,12.97 0,8.09 -6.58,13.73 -14.29,13.73 -8.46,0 -13.91,-7.15 -13.91,-14.1 h -7.52 c 0,12.59 9.97,20.87 21.62,20.87 11.28,0 21.06,-9.03 21.06,-20.5 z"
   stroke-linecap="round"
   id="path3" />
</g>
</g>
</g>
</svg>
